<svg width="30" height="30" viewBox="0 0 30 30" fill="none" xmlns="http://www.w3.org/2000/svg">
<path opacity="0.35" d="M22.5 26.25H7.5C5.42875 26.25 3.75 24.5712 3.75 22.5V7.5C3.75 5.42875 5.42875 3.75 7.5 3.75H22.5C24.5712 3.75 26.25 5.42875 26.25 7.5V22.5C26.25 24.5712 24.5712 26.25 22.5 26.25Z" fill="#304099"/>
<path d="M21.25 17.5C20.56 17.5 20 16.9412 20 16.25V10H13.75C13.06 10 12.5 9.44125 12.5 8.75C12.5 8.05875 13.06 7.5 13.75 7.5H21.25C21.94 7.5 22.5 8.05875 22.5 8.75V16.25C22.5 16.9412 21.94 17.5 21.25 17.5Z" fill="#304099"/>
<path d="M12.4999 18.75C12.1799 18.75 11.8599 18.6275 11.6162 18.3838C11.1274 17.895 11.1274 17.105 11.6162 16.6163L20.3662 7.86626C20.8549 7.37751 21.6449 7.37751 22.1337 7.86626C22.6224 8.35501 22.6224 9.14501 22.1337 9.63376L13.3837 18.3838C13.1399 18.6275 12.8199 18.75 12.4999 18.75Z" fill="#304099"/>
</svg>
